<svg xmlns="http://www.w3.org/2000/svg" fill="none" viewBox="0 0 54 54"><g clip-path="url(#a)"><g clip-path="url(#b)"><path fill="#d31245" d="M51.732 18.573c-.066-.265-.138-.542-.155-.874-.033-.63-.41-.94-.636-1.123-.044-.038-.105-.088-.133-.116-.171-.614-.824-1.062-1.493-1.04-.498.023-1.034.04-1.698.023-1.455-.04-2.251.591-2.948 1.581l-11.46 2.174a1.8 1.8 0 0 0-.73-.608 4.7 4.7 0 0 0 .797-.93c.636-.979.84-2.09.541-2.892-.215-.57-.597-.808-.884-.902-.83-.282-1.903.2-2.915.791-.365-.083-.819-.077-1.344.127a7.4 7.4 0 0 0-1.814-.22c-.57 0-1.123.06-1.643.176-.481-.166-.89-.166-1.233-.088-1.013-.592-2.086-1.073-2.915-.791-.288.1-.675.332-.885.901-.299.802-.094 1.914.542 2.893.227.354.498.664.79.923a1.76 1.76 0 0 0-.74.609L9.332 17.019c-.696-.99-1.487-1.62-2.948-1.582-.658.022-1.2 0-1.698-.022-.669-.028-1.321.426-1.493 1.04-.022.027-.088.077-.133.116-.226.182-.602.492-.636 1.123-.016.331-.088.608-.155.874-.165.647-.337 1.316.31 2.422.531.907 1.278 1.433 2.047 1.433.32 0 .713-.1.973-.183.824.315 1.45.183 1.836.1.05-.012.116-.023.155-.034 3.745 1.742 10.492 5.437 14.414 10.896-.04 1.222.22 2.904 1.012 3.628-.708.913-1.001 1.803.072 3.092l.326.393.404-.316q.076-.058.16-.127l.033.034.36.37.381-.348q.16-.152.327-.293c.121.066.249.116.381.16l.487.15.172-.482c.055-.155.105-.31.16-.459.144-.426.276-.807.442-1.184q.001.092.012.183c.1.951 0 1.62-.117 2.478l-.066.48-.066.504.503.083q.209.034.41.028c.06.15.11.287.16.41l.182.48.487-.166.044-.016c.028.066.055.133.083.188l.221.464.47-.204c1.842-.797 1.682-1.986 1.284-3.457l-.045-.16c-.01-.526.1-1.24.321-2.108a5 5 0 0 0 1.383.476c.287.055.558.077.813.077.78 0 1.41-.243 1.759-.697l.564-.74-.288-.034q.35-.272.625-.652c.564-.791.786-1.859.575-2.782l-.265-1.168-.382.548a1.7 1.7 0 0 0-.204-.376l-.36-.509-.442.437c-.205.2-.354.293-.454.293-.077 0-.254-.06-.58-.37 3.976-4.536 9.706-7.644 13.069-9.21.044.006.105.023.155.034.387.083 1.012.216 1.836-.1.26.083.653.183.973.183.775 0 1.521-.526 2.047-1.433.641-1.106.47-1.775.31-2.422zm-.763 2.151c-.382.653-.952 1.168-1.593 1.168-.282 0-.703-.111-.996-.216a2.37 2.37 0 0 1-1.25.221c-.144-.011-.27-.039-.381-.06-.227-.045-.388-.09-.493-.045-4.784 2.218-11.294 6.123-14.966 11.493-.028.078-.06.15-.089.227.852-.874 1.754-1.632 1.77-1.615.758.724 1.206.63 1.776.072.426.597.105 1.211.105 1.211s.41-.05.658-.404c.315 1.4-.526 3.22-2.262 3.402.088.199.476.32.88.37-.653.852-2.822.492-3.85-.376-.37 1.25-.603 2.417-.52 3.225l.044.016c.398 1.466.443 2.218-.984 2.832-.1-.21-.2-.476-.277-.675-.138.083-.304.16-.509.227a41 41 0 0 0-.315-.796c-.2.055-.426.066-.658.027.144-1.078.304-1.88.182-3.08-.072-.68.166-.98.515-1.001-.056-.968-.238-2.639-.863-2.893-.354-.144-.83.592-.553 1.161.641.017 1.018.426.492 1.245-.653 1.012-.868 1.803-1.228 2.832a1.6 1.6 0 0 1-.575-.321c-.188.16-.431.376-.642.57a2.5 2.5 0 0 1-.348-.432 10 10 0 0 1-.548.481c-.968-1.161-.63-1.814.332-2.892-.597-.078-1.183-.89-1.283-3.645-3.7-5.249-10.088-9.07-14.8-11.255-.277-.128-.985.398-2.124-.122-.293.105-.714.216-.996.216-.641 0-1.211-.52-1.593-1.168-.785-1.349-.144-1.791-.083-3.003.033-.663.647-.724.747-1.106s.547-.68.968-.664c.481.022 1.045.04 1.731.022 1.217-.033 1.892.443 2.616 1.533l11.488 2.179c-.354.83-.327 1.902.1 2.892a3 3 0 0 1-.006-.332c.055-1.869.52-3.312 1.532-3.246.01 0 .027 0 .038-.006q.007-.273.04-.547c-1.195-.84-1.892-2.478-1.516-3.496.453-1.216 2.007-.459 3.23.271.365-.138.785-.133 1.266.067a7 7 0 0 1 1.676-.205c.675 0 1.306.094 1.853.249.525-.244.985-.26 1.377-.116 1.217-.73 2.771-1.488 3.23-.271.382 1.012-.32 2.654-1.515 3.495q.032.274.038.548c.012 0 .028 0 .04.005 1.011-.066 1.476 1.378 1.531 3.247q.001.183-.005.348c.486-1.062.409-2.146.083-2.909L44.984 17.5c.587-.885 1.145-1.366 1.986-1.499.194-.028.404-.044.63-.033q.638.017 1.15 0c.067 0 .14 0 .2-.006.133 0 .26-.01.376-.016.42-.017.868.282.968.664.083.31.503.409.675.79a.9.9 0 0 1 .072.316c.01.265.055.492.105.702.01.061.027.116.044.177.017.055.028.11.044.166q.024.082.039.166l.033.16c.089.454.072.919-.343 1.637zm-24.11 14.054h-.01v-.01q-.001.001.005.01z"/><path fill="#babcbe" d="M8.636 19.845c.492 1.057 2.024 1.538 2.55 1.71-.664-1.03-.725-1.693-.725-1.693 2.295 1.029 7.317 1.875 9.674 3.025-.366-2.478-3.568-3.08-5.742-3.567.426.542.122.846.122.846-.664-.846-5.403-1.753-5.863-1.814-.74-.99-1.277-1.704-2.317-1.654s-1.632-.243-1.814.304a.6.6 0 0 1-.083.166c-.022 1.001.719 1.576.719 1.576l-.044.095c.403-.443.796-.736.796-.874 0-.183-.304-.332-.332-.636 1.665.575.487 1.167-.21 2.024-.664.819-.326 1.327.603 1.029 1.117-.365 2.024-1.45 2.024-1.45.327.709-.669 1.737-1.935 2.02.37.27 1.006.126 1.111-.189 1.012.139 1.355-.542 1.466-.923z"/><path fill="#babcbe" d="M5.02 20.968c-.228-.072-.377-.2-.46-.36-.393-.287-.93-.83-.586-1.437.094.326.326.525.525.641a1.5 1.5 0 0 1 .216-.481c-.293-.249-.94-.935-.592-1.941-.205.116-.404.276-.42.907-.022.912-.515 1.117-.089 1.78.376.587.797 1.057 1.41.885z"/><path fill="#231f20" d="M51.28 18.933c-.01-.056-.028-.111-.039-.166-.016-.056-.027-.11-.044-.166s-.028-.116-.044-.177a4 4 0 0 1-.105-.703.9.9 0 0 0-.072-.315c-.172-.382-.592-.481-.675-.79-.1-.383-.547-.681-.968-.665-.121 0-.249.011-.376.017q-.1-.002-.199.006a20 20 0 0 1-1.15 0c-.227-.006-.437 0-.63.033-.842.133-1.4.614-1.986 1.499l-11.5 2.179c.327.763.405 1.842-.082 2.909a4 4 0 0 0 .005-.348c-.055-1.87-.52-3.313-1.532-3.247-.01 0-.027 0-.038-.006a6 6 0 0 0-.039-.547c1.195-.84 1.891-2.478 1.515-3.496-.453-1.216-2.007-.459-3.23.271-.392-.143-.851-.127-1.377.117a6.6 6.6 0 0 0-1.853-.25c-.602 0-1.172.073-1.675.205-.482-.199-.902-.204-1.267-.066-1.217-.73-2.771-1.488-3.23-.271-.382 1.012.32 2.655 1.515 3.495a6 6 0 0 0-.038.548c-.011 0-.028 0-.04.006-1.011-.067-1.476 1.377-1.531 3.246q-.001.174.005.332c-.42-.99-.453-2.063-.1-2.893L9.014 17.511c-.724-1.09-1.405-1.565-2.616-1.532-.686.022-1.25 0-1.731-.022-.42-.017-.868.282-.968.664-.1.381-.713.442-.747 1.106-.06 1.211-.708 1.654.083 3.003.382.653.952 1.167 1.593 1.167.282 0 .703-.11.996-.216 1.14.52 1.847-.005 2.124.122 4.712 2.185 11.106 6.007 14.8 11.255.1 2.755.686 3.568 1.284 3.645-.963 1.079-1.3 1.726-.332 2.893a8 8 0 0 0 .547-.481c.089.138.2.282.349.431.215-.194.453-.41.641-.57.155.139.349.255.575.321.36-1.023.576-1.82 1.228-2.832.526-.818.15-1.227-.492-1.244-.277-.57.2-1.305.553-1.161.625.254.808 1.919.863 2.892-.349.022-.586.32-.515 1.001.122 1.195-.038 2.002-.182 3.08.232.04.46.029.658-.027.094.227.216.531.315.797.2-.072.371-.144.51-.227.071.2.176.465.276.675 1.421-.614 1.377-1.372.984-2.832l-.044-.017c-.083-.807.15-1.974.52-3.224 1.029.874 3.197 1.233 3.85.376-.404-.044-.786-.172-.88-.37 1.742-.189 2.583-2.008 2.262-3.402-.249.36-.658.404-.658.404s.32-.614-.105-1.212c-.57.559-1.018.653-1.776-.072-.016-.016-.918.742-1.77 1.615.028-.077.062-.149.09-.226 3.672-5.37 10.181-9.275 14.966-11.493.105-.05.27 0 .492.044q.165.035.382.06c.331.034.746 0 1.25-.22.293.105.713.215.995.215.642 0 1.211-.52 1.593-1.167.415-.719.431-1.178.343-1.637l-.033-.16zm-4.458 1.83c-1.012.139-1.355-.542-1.465-.923-.493 1.056-2.025 1.537-2.545 1.709.664-1.029.725-1.693.725-1.693-2.295 1.029-7.317 1.875-9.674 3.026.365-2.478 3.568-3.081 5.742-3.568-.426.542-.122.846-.122.846.664-.846 5.403-1.753 5.863-1.814.74-.99 1.277-1.703 2.317-1.653s1.632-.244 1.814.304a.6.6 0 0 0 .083.166c.022 1-.719 1.576-.719 1.576l.044.094c-.404-.442-.796-.736-.796-.874 0-.182.304-.332.332-.636-1.665.575-.487 1.167.21 2.024.663.819.326 1.328-.603 1.03-1.117-.366-2.024-1.45-2.024-1.45-.327.708.669 1.737 1.936 2.019-.371.27-1.007.127-1.112-.188zm2.616-.155c.393-.287.93-.83.587-1.438a1.1 1.1 0 0 1-.526.642 1.5 1.5 0 0 0-.199-.46c0-.005-.011-.016-.017-.021.294-.25.94-.935.592-1.941.205.116.404.276.42.907.023.912.515 1.117.09 1.78-.377.587-.797 1.057-1.411.885.227-.072.376-.199.459-.36zm-12.466 3.28a3.8 3.8 0 0 0-1.936 0c1.692-1.029 3.75-1.51 6.41-1.996l-3.75 1.449s.603.149 1.328.514c-.874.332-3.8 1.073-6.046 3.927-.663.846-3.523 1.62-4.972.597 0 0 3.424.216 4.608-1.56.967-1.448 2.782-2.51 4.352-2.93zM7.177 20.763c-.105.316-.741.46-1.112.188 1.261-.282 2.262-1.31 1.936-2.018 0 0-.907 1.09-2.024 1.449-.93.304-1.272-.21-.603-1.03.702-.862 1.875-1.448.21-2.023.028.304.332.453.332.636 0 .132-.393.431-.796.874l.044-.095s-.741-.575-.72-1.576q.051-.067.084-.166c.182-.542.774-.249 1.814-.304 1.04-.05 1.57.664 2.317 1.654.46.06 5.2.968 5.863 1.814 0 0 .304-.304-.122-.846 2.174.48 5.382 1.09 5.741 3.567-2.356-1.15-7.372-1.997-9.673-3.025 0 0 .06.664.724 1.692-.525-.177-2.052-.652-2.55-1.709-.11.382-.447 1.062-1.465.924zm-3.473-2.466c.016-.631.215-.791.42-.907-.348 1.006.299 1.692.592 1.94 0 .006-.011.017-.017.023a1.6 1.6 0 0 0-.199.459 1.1 1.1 0 0 1-.525-.642c-.343.609.193 1.145.586 1.438.088.16.232.288.459.36-.614.166-1.034-.299-1.41-.885-.426-.664.066-.868.088-1.78zm17.555 3.827c.005-.691.088-1.383.431-2.14.57-1.25 2.395 1.56 2.942 2.45-.038-.653-.16-1.057-.298-1.311.15-.1.376-.271.536-.415.47-.426.996-.404 1.416-.26.15.05.398.177.398.177l.31-1.023.31 1.029s.249-.128.398-.177c.426-.144.946-.166 1.416.26.16.143.387.315.537.414-.139.255-.26.659-.3 1.311.548-.89 2.374-3.7 2.943-2.45.343.758.426 1.444.432 2.14.01 1.051-.365 1.433-.974 1.831-.481.315-1.178.32-2.395.741-.448.155-1.504.51-2.372.46-.869.05-1.925-.305-2.373-.46-1.217-.42-1.914-.426-2.395-.74-.608-.4-.979-.78-.974-1.832zm1.598-3.335c.188.608.813 1.012 1.576 1.04a1.34 1.34 0 0 1-.824.232c-.282-.343-.58-.658-.852-.857q0-.2.105-.415zm7.234-2.915c.52-.177.819-.548 1.676-.868.686-.255.951.01 1.062.326-.697-.122-1.587.531-2.124.996.183.21.332.475.42.818-1.023-1.31-1.758-.32-2.04 1.366-.172 1.051-.282 1.543-1.057 1.505.283-.404.205-1.704.526-2.6-.487.448-1.057 1.261-1.057 1.261.194-1.006 1.018-2.892 2.075-2.915.149 0 .326.034.514.111zm1.15 3.33c-.276.199-.569.514-.85.857-.255.022-.537-.044-.825-.232.763-.028 1.383-.437 1.576-1.04a.9.9 0 0 1 .105.415zm-1.028-1.267c.083-.022.177.078.21.216s0 .27-.083.287c-.083.022-.177-.077-.21-.215-.033-.139 0-.271.083-.288m.194-.348c-.061-.238.005-.465.143-.498.139-.033.3.133.36.37.06.238-.006.465-.144.498s-.298-.133-.36-.37m1.095.055c.155-.094.32-.232.448-.431a.72.72 0 0 1-.51-.056c.206-.033.526-.276.83-.802-.353.155-.63.11-.707.039.276-.337.912-.725 1.255-.67-.05.388-.332 1.654-1.283 2.158l-.033-.244zm-9.27-2.633c.857.321 1.156.692 1.676.869a1.3 1.3 0 0 1 .514-.111c1.057.022 1.88 1.914 2.074 2.915 0 0-.57-.813-1.056-1.261.326.89.243 2.19.525 2.6-.768.038-.879-.449-1.056-1.505-.277-1.687-1.018-2.677-2.04-1.366.088-.343.237-.609.42-.819-.532-.464-1.428-1.117-2.124-.995.11-.316.37-.587 1.062-.327zm1.433 3.43c-.083-.023-.122-.15-.083-.288.033-.138.127-.238.21-.216s.116.15.083.288c-.034.138-.128.237-.21.215m-.576-.974c.061-.238.222-.404.36-.37.138.032.204.254.144.497-.061.238-.222.41-.36.37-.138-.032-.204-.254-.144-.497m-.658-1.067c-.077.071-.354.116-.708-.04.304.526.625.77.83.803-.122.055-.266.11-.509.055.127.2.293.337.448.431l-.033.244c-.951-.503-1.234-1.77-1.283-2.157.343-.056.979.332 1.255.669zm6.538 23.688s0 .84-.576 1.007c-.05-.133-.094-.26-.132-.365.298-.266.448-.653.337-1.062 0 0-.287.586-.796.608.127-.464.154-1.692.11-2.29-.044-.602.116.172.747.393.542.194.044 1.134.57 1.31.199.687.403 1.179-.216 1.693q-.034-.098-.061-.171c.182-.293.171-.658.017-1.128zm-3.275-9.037s-.033.016-.044.027c-.26-.669 1.123-.807 1.123-.807s-.255-.714.442-.592c.399.11-.32.221-.188.586.044.017 1.433.21 1.134.813-.017-.01-.033-.016-.044-.027-.011.459-.15 1.15-.592 1.371-.464.233-.62.454-.62.454s-.154-.221-.619-.454c-.442-.22-.58-.912-.592-1.371m2.832.691c.039-.15.061-.293.072-.415l.011-.027c.05-.1.077-.2.089-.305.746-.16 1.41-.425 1.947-.763-.36.703-1.051 1.245-2.124 1.505zm-1.52-4.585-2.904-1.753s.818-.061 2.87 1.09c1.632-1.03 2.688-.969 2.688-.969L27 27.157zm-1.898 3.794c0 .1.028.205.066.31l.034.083c.01.105.027.221.06.343-.956-.277-1.581-.797-1.913-1.45.492.31 1.09.554 1.759.72zm-1.383 7.777c-.32-.736.083-1.084.576-1.604.547.083.53-.985 1.1-.913.664.089 1.156-.531.84-.017-.314.515-.84 1.621-.934 2.097-.442-.25-.437-.902-.437-.902-.282.31-.326.725-.177 1.1-.083.078-.177.172-.282.266-.442-.41-.055-1.161-.055-1.161-.349.348-.526.669-.492 1.012a2 2 0 0 0-.133.122zM21.38 26.825c1.184 1.781 4.608 1.56 4.608 1.56-1.45 1.029-4.31.254-4.973-.598-2.245-2.859-5.171-3.595-6.045-3.926.724-.365 1.327-.515 1.327-.515l-3.75-1.449c2.66.481 4.718.968 6.41 1.997a3.8 3.8 0 0 0-1.935 0c1.57.426 3.385 1.482 4.353 2.931z"/><path fill="#babcbe" d="M50.39 20.083c.425-.664-.067-.868-.09-1.78-.016-.631-.215-.792-.42-.908.349 1.007-.298 1.692-.591 1.941a1.582 1.582 0 0 1 .216.481c.198-.116.43-.315.525-.641.343.608-.194 1.145-.587 1.438a.76.76 0 0 1-.459.36c.614.165 1.035-.3 1.41-.885z"/><path fill="#babcbe" d="M47.94 20.951c-1.262-.282-2.263-1.31-1.936-2.018 0 0 .907 1.09 2.024 1.449.929.304 1.272-.21.603-1.03-.703-.862-1.875-1.448-.21-2.023-.028.304-.332.453-.332.636 0 .132.392.431.796.874l-.044-.095s.741-.575.719-1.576a.6.6 0 0 1-.083-.166c-.183-.542-.774-.249-1.814-.304-1.04-.05-1.571.664-2.318 1.654-.459.06-5.199.968-5.862 1.814 0 0-.305-.304.121-.846-2.173.48-5.381 1.09-5.74 3.567 2.355-1.15 7.372-1.997 9.673-3.025 0 0-.061.663-.725 1.692.526-.177 2.052-.652 2.544-1.709.111.382.448 1.062 1.466.924.105.315.741.459 1.112.188zM29.228 39.69c-.526-.177-.028-1.117-.57-1.311-.63-.221-.79-.995-.747-.393.045.603.017 1.826-.11 2.29.509-.022.796-.608.796-.608.11.409-.033.796-.337 1.062.039.105.083.232.133.365.58-.166.575-1.007.575-1.007.155.465.166.83-.017 1.128q.027.066.061.172c.62-.514.415-1.007.216-1.693zM24.35 37.594s-.382.746.055 1.161c.105-.094.205-.188.282-.265-.149-.37-.105-.786.177-1.1 0 0-.005.652.437.9.1-.47.625-1.576.935-2.096.315-.514-.183.1-.84.017-.57-.072-.554.995-1.101.913-.487.52-.896.868-.576 1.603q.075-.073.133-.121c-.033-.343.144-.664.492-1.012z"/><path fill="#d31245" d="M25.267 31.687c-.028-.127-.044-.244-.061-.343l-.033-.083a1 1 0 0 1-.066-.31 5.9 5.9 0 0 1-1.76-.719c.338.658.963 1.173 1.914 1.45zM28.614 31.3l-.01.027a2.6 2.6 0 0 1-.073.415c1.073-.26 1.765-.807 2.124-1.504-.536.337-1.2.602-1.947.763a.9.9 0 0 1-.088.304zM26.283 32.422c.465.233.62.454.62.454s.154-.221.619-.454c.443-.22.58-.912.592-1.371.016.01.033.016.044.027.293-.602-1.09-.796-1.134-.813-.133-.36.586-.475.188-.586-.691-.122-.442.592-.442.592s-1.389.138-1.123.807c.017-.01.033-.016.044-.027.011.459.15 1.15.592 1.371M18.961 23.888c-1.692-1.029-3.75-1.51-6.41-1.996l3.75 1.449s-.603.149-1.328.514c.874.332 3.8 1.073 6.045 3.927.664.846 3.524 1.62 4.973.597 0 0-3.424.216-4.607-1.56-.968-1.448-2.782-2.51-4.353-2.93a3.8 3.8 0 0 1 1.936 0zM32.619 26.825c-1.184 1.781-4.607 1.56-4.607 1.56 1.449 1.029 4.308.254 4.972-.598 2.246-2.859 5.171-3.594 6.045-3.926-.724-.365-1.327-.515-1.327-.515l3.75-1.449c-2.66.481-4.718.968-6.41 1.997a3.8 3.8 0 0 1 1.935 0c-1.57.426-3.385 1.482-4.352 2.931zM26.972 26.488c-2.057-1.15-2.87-1.09-2.87-1.09l2.903 1.753 2.66-1.631s-1.056-.061-2.687.968z"/><path fill="#babcbe" d="m22.455 17.887.033-.243a1.4 1.4 0 0 1-.448-.431c.244.055.387 0 .51-.056-.206-.033-.526-.276-.83-.802.353.155.63.11.707.039-.276-.337-.912-.725-1.255-.67.05.388.332 1.654 1.283 2.158z"/><path fill="#d31245" d="M21.168 15.338c.697-.122 1.587.53 2.124.995-.183.21-.332.476-.42.819 1.023-1.311 1.758-.321 2.04 1.366.177 1.05.282 1.543 1.057 1.504-.282-.404-.205-1.703-.526-2.6.487.449 1.057 1.262 1.057 1.262-.194-1.007-1.018-2.893-2.074-2.915-.15 0-.327.033-.515.11-.52-.176-.818-.547-1.676-.868-.685-.254-.95.011-1.061.327z"/><path fill="#fff" d="M23.233 17.965c.138.033.299-.133.36-.37.06-.239-.006-.465-.144-.499-.139-.033-.3.133-.36.37-.06.239.006.465.144.499M23.868 18.225c.034-.139 0-.271-.083-.288-.083-.022-.177.078-.21.216s0 .27.083.287c.083.022.177-.077.21-.215"/><path fill="#babcbe" d="M32.823 15.73c-.343-.055-.98.332-1.256.67.077.071.354.116.708-.04-.304.526-.625.77-.83.803.122.055.266.11.51.055-.128.2-.294.337-.449.431l.033.244c.952-.503 1.234-1.77 1.283-2.157z"/><path fill="#d31245" d="M27.5 18.678s.57-.813 1.056-1.26c-.326.89-.243 2.19-.525 2.599.769.038.88-.448 1.056-1.505.282-1.687 1.018-2.677 2.041-1.366a2 2 0 0 0-.42-.818c.53-.465 1.427-1.118 2.124-.996-.11-.315-.37-.586-1.062-.326-.857.32-1.156.691-1.676.868a1.3 1.3 0 0 0-.514-.11c-1.057.022-1.88 1.913-2.074 2.914z"/><path fill="#fff" d="M30.765 17.965c.138-.034.205-.255.144-.498-.061-.238-.221-.404-.36-.37-.138.032-.204.254-.143.497.06.238.22.41.359.37M30.128 18.225c.034.138.128.237.21.215.084-.022.117-.149.084-.287-.034-.138-.128-.238-.21-.216-.084.022-.122.15-.084.288"/><path fill="#babcbe" d="M23.607 20.06c.255.023.537-.043.824-.231-.763-.028-1.382-.437-1.576-1.04a.9.9 0 0 0-.105.415c.276.199.57.514.852.857zM31.143 18.789c-.188.608-.813 1.012-1.577 1.04.288.188.576.248.825.232.282-.343.58-.658.851-.857a.9.9 0 0 0-.105-.415z"/><path fill="#babcbe" d="M22.232 23.95c.481.314 1.178.32 2.395.74.448.155 1.504.51 2.373.46.868.05 1.924-.305 2.372-.46 1.217-.42 1.914-.426 2.395-.74.609-.4.98-.78.974-1.832-.006-.691-.089-1.382-.432-2.14-.57-1.25-2.394 1.56-2.942 2.45.039-.652.16-1.056.299-1.31-.15-.1-.377-.272-.537-.415-.47-.426-.995-.404-1.416-.26-.15.05-.398.176-.398.176l-.31-1.028-.31 1.023s-.248-.127-.398-.177c-.426-.144-.945-.166-1.416.26a5 5 0 0 1-.536.415c.133.254.26.658.299 1.31-.548-.89-2.373-3.7-2.943-2.45-.343.758-.426 1.444-.431 2.14-.011 1.052.365 1.433.973 1.832zm9.226-3.17c.127-.21.509-.32.636.138.36 1.278-.083 2.218-.083 2.218q-.007-.1-.022-.232c-.2.138-.952.586-2.473.708-.226.149-.453.276-.68.365 1.018-.902 2.069-2.301 2.622-3.197m-5.808.276c.398-.22.935.476 1.35.476s.951-.697 1.35-.476c.403.222.16.836-.2 1.013s.2-.36-.177-.277c-.376.077-.973 1.073-.973 1.073s-.598-.995-.974-1.073.177.46-.177.277c-.36-.177-.602-.791-.199-1.013m-3.744-.138c.127-.459.509-.348.636-.138.553.896 1.598 2.295 2.621 3.197a3.7 3.7 0 0 1-.68-.365c-1.52-.127-2.273-.57-2.472-.708-.011.088-.017.171-.022.232 0 0-.443-.94-.083-2.218"/><path fill="#fff" d="M22.295 21.466c-.06.116-.11.282-.149.475.183.238.57.72.973.99-.52-.044-.868-.265-1.061-.453-.023.15-.034.298-.05.426.199.138.951.58 2.472.708-.785-.515-1.554-1.333-2.185-2.146"/><path fill="#231f20" d="M22.004 22.904q.015-.193.05-.426c.193.188.542.404 1.061.453-.398-.265-.79-.752-.973-.99.039-.193.088-.36.15-.475.63.813 1.399 1.631 2.184 2.146.227.149.454.276.68.365-1.017-.902-2.068-2.301-2.621-3.197-.128-.21-.51-.32-.636.138-.36 1.278.083 2.218.083 2.218q.006-.1.022-.232"/><path fill="#fff" d="M31.942 22.478c-.194.188-.542.404-1.062.453.398-.265.791-.752.974-.99a1.9 1.9 0 0 0-.15-.475c-.63.813-1.4 1.631-2.184 2.146 1.52-.127 2.273-.57 2.472-.708a8 8 0 0 0-.05-.426"/><path fill="#231f20" d="M28.836 23.982c.227-.088.454-.215.68-.365.786-.514 1.554-1.333 2.185-2.146.06.116.11.282.15.476-.183.238-.57.719-.974.99.52-.044.868-.266 1.062-.454.022.15.033.299.05.426.01.089.016.172.022.233 0 0 .442-.94.083-2.218-.128-.46-.51-.349-.636-.139-.553.896-1.599 2.296-2.622 3.197M26.023 21.792c.376.077.973 1.073.973 1.073s.598-.995.974-1.073-.177.46.177.277c.36-.177.603-.791.199-1.012-.398-.222-.935.475-1.35.475s-.951-.697-1.35-.476c-.403.222-.16.836.2 1.013s-.2-.36.177-.277"/><path fill="#d31245" d="M31.54 38.13h-.244v.67h-.166v-.67h-.243v-.144h.658v.144zm1.111.67h-.166v-.648l-.238.648h-.16l-.227-.648v.648h-.166v-.813h.288l.188.53.199-.53h.288v.813z"/></g></g><defs><clipPath id="a"><path fill="#fff" d="M0 0h54v54H0z"/></clipPath><clipPath id="b"><path fill="#fff" d="M2.11 13.778h49.777v29.17H2.11z"/></clipPath></defs></svg>